<mxfile host="app.diagrams.net" agent="Mozilla/5.0 (Windows NT 10.0; Win64; x64) AppleWebKit/537.36 (KHTML, like Gecko) Chrome/129.0.0.0 Safari/537.36" version="24.7.17">
  <diagram name="Page-1" id="BsvyeF4KI63PfdyFnDuq">
    <mxGraphModel dx="2723" dy="2103" grid="1" gridSize="10" guides="1" tooltips="1" connect="1" arrows="1" fold="1" page="0" pageScale="1" pageWidth="827" pageHeight="1169" math="0" shadow="0">
      <root>
        <mxCell id="0" />
        <mxCell id="1" parent="0" />
        <mxCell id="UY9DITYKQAompn-UwXVe-24" style="rounded=0;orthogonalLoop=1;jettySize=auto;html=1;entryX=0;entryY=0.5;entryDx=0;entryDy=0;endArrow=none;endFill=0;" parent="1" source="UY9DITYKQAompn-UwXVe-1" target="UY9DITYKQAompn-UwXVe-3" edge="1">
          <mxGeometry relative="1" as="geometry" />
        </mxCell>
        <mxCell id="UY9DITYKQAompn-UwXVe-25" style="rounded=0;orthogonalLoop=1;jettySize=auto;html=1;entryX=0;entryY=0.5;entryDx=0;entryDy=0;exitX=1;exitY=0.3333333333333333;exitDx=0;exitDy=0;exitPerimeter=0;endArrow=none;endFill=0;" parent="1" source="UY9DITYKQAompn-UwXVe-1" target="UY9DITYKQAompn-UwXVe-5" edge="1">
          <mxGeometry relative="1" as="geometry" />
        </mxCell>
        <mxCell id="UY9DITYKQAompn-UwXVe-1" value="Cliente" style="shape=umlActor;verticalLabelPosition=bottom;verticalAlign=top;html=1;" parent="1" vertex="1">
          <mxGeometry x="-160" y="-350" width="30" height="60" as="geometry" />
        </mxCell>
        <mxCell id="UY9DITYKQAompn-UwXVe-38" value="v" style="swimlane;startSize=0;" parent="1" vertex="1">
          <mxGeometry x="-80" y="-770" width="910" height="1430" as="geometry">
            <mxRectangle x="-60" y="-710" width="50" height="40" as="alternateBounds" />
          </mxGeometry>
        </mxCell>
        <mxCell id="UY9DITYKQAompn-UwXVe-39" value="Website" style="text;html=1;align=center;verticalAlign=middle;resizable=0;points=[];autosize=1;strokeColor=none;fillColor=none;" parent="UY9DITYKQAompn-UwXVe-38" vertex="1">
          <mxGeometry x="780" y="10" width="70" height="30" as="geometry" />
        </mxCell>
        <mxCell id="UY9DITYKQAompn-UwXVe-3" value="Registrarsee" style="ellipse;whiteSpace=wrap;html=1;" parent="UY9DITYKQAompn-UwXVe-38" vertex="1">
          <mxGeometry x="70" y="600" width="140" height="70" as="geometry" />
        </mxCell>
        <mxCell id="UY9DITYKQAompn-UwXVe-5" value="Recuperar contraseña" style="ellipse;whiteSpace=wrap;html=1;noLabel=0;" parent="UY9DITYKQAompn-UwXVe-38" vertex="1">
          <mxGeometry x="70" y="180" width="140" height="70" as="geometry" />
        </mxCell>
        <mxCell id="UY9DITYKQAompn-UwXVe-8" value="Ingresar&amp;nbsp;&lt;div&gt;informacion&lt;/div&gt;" style="ellipse;whiteSpace=wrap;html=1;" parent="UY9DITYKQAompn-UwXVe-38" vertex="1">
          <mxGeometry x="510" y="260" width="140" height="70" as="geometry" />
        </mxCell>
        <mxCell id="j46p12jNmcbfrppGY4FV-32" style="rounded=0;orthogonalLoop=1;jettySize=auto;html=1;entryX=1;entryY=0.5;entryDx=0;entryDy=0;flowAnimation=0;shadow=0;jumpStyle=none;exitX=0;exitY=0.5;exitDx=0;exitDy=0;elbow=vertical;endArrow=none;endFill=0;" parent="UY9DITYKQAompn-UwXVe-38" source="UY9DITYKQAompn-UwXVe-9" target="I5_FkPABJrjS-Rx3a09a-2" edge="1">
          <mxGeometry relative="1" as="geometry" />
        </mxCell>
        <mxCell id="UY9DITYKQAompn-UwXVe-9" value="Ver mis agenda" style="ellipse;whiteSpace=wrap;html=1;" parent="UY9DITYKQAompn-UwXVe-38" vertex="1">
          <mxGeometry x="300" y="610" width="140" height="70" as="geometry" />
        </mxCell>
        <mxCell id="a-UGdXaP6SHZQmlNzmEN-1" value="Crear nueva contraseña" style="ellipse;whiteSpace=wrap;html=1;" parent="UY9DITYKQAompn-UwXVe-38" vertex="1">
          <mxGeometry x="530" y="65" width="140" height="70" as="geometry" />
        </mxCell>
        <mxCell id="j46p12jNmcbfrppGY4FV-1" value="Visualizar inicio" style="ellipse;whiteSpace=wrap;html=1;" parent="UY9DITYKQAompn-UwXVe-38" vertex="1">
          <mxGeometry x="380" y="415" width="140" height="70" as="geometry" />
        </mxCell>
        <mxCell id="j46p12jNmcbfrppGY4FV-4" value="&lt;div&gt;Recibir correo&lt;/div&gt;" style="ellipse;whiteSpace=wrap;html=1;noLabel=0;" parent="UY9DITYKQAompn-UwXVe-38" vertex="1">
          <mxGeometry x="280" y="65" width="140" height="70" as="geometry" />
        </mxCell>
        <mxCell id="j46p12jNmcbfrppGY4FV-35" style="rounded=0;orthogonalLoop=1;jettySize=auto;html=1;entryX=1;entryY=0.5;entryDx=0;entryDy=0;exitX=0;exitY=0.5;exitDx=0;exitDy=0;endArrow=none;endFill=0;" parent="UY9DITYKQAompn-UwXVe-38" source="j46p12jNmcbfrppGY4FV-9" target="I5_FkPABJrjS-Rx3a09a-2" edge="1">
          <mxGeometry relative="1" as="geometry">
            <Array as="points" />
          </mxGeometry>
        </mxCell>
        <mxCell id="j46p12jNmcbfrppGY4FV-9" value="Agendar citas" style="ellipse;whiteSpace=wrap;html=1;" parent="UY9DITYKQAompn-UwXVe-38" vertex="1">
          <mxGeometry x="270" y="260" width="140" height="70" as="geometry" />
        </mxCell>
        <mxCell id="j46p12jNmcbfrppGY4FV-160" value="Realizar pago" style="ellipse;whiteSpace=wrap;html=1;" parent="UY9DITYKQAompn-UwXVe-38" vertex="1">
          <mxGeometry x="730" y="260" width="140" height="70" as="geometry" />
        </mxCell>
        <mxCell id="I5_FkPABJrjS-Rx3a09a-2" value="Iniciar sesión&amp;nbsp;&lt;div&gt;(autenticarse)&lt;/div&gt;" style="ellipse;whiteSpace=wrap;html=1;" parent="UY9DITYKQAompn-UwXVe-38" vertex="1">
          <mxGeometry x="60" y="415" width="140" height="70" as="geometry" />
        </mxCell>
        <mxCell id="I5_FkPABJrjS-Rx3a09a-7" value="Ver detalles" style="ellipse;whiteSpace=wrap;html=1;" parent="UY9DITYKQAompn-UwXVe-38" vertex="1">
          <mxGeometry x="500" y="680" width="140" height="70" as="geometry" />
        </mxCell>
        <mxCell id="951kdNYIY-3Ci5IxXGCE-1" style="rounded=0;orthogonalLoop=1;jettySize=auto;html=1;entryX=0.977;entryY=0.291;entryDx=0;entryDy=0;exitX=0;exitY=0.5;exitDx=0;exitDy=0;endArrow=none;endFill=0;entryPerimeter=0;" edge="1" parent="UY9DITYKQAompn-UwXVe-38" source="j46p12jNmcbfrppGY4FV-4" target="UY9DITYKQAompn-UwXVe-5">
          <mxGeometry relative="1" as="geometry">
            <mxPoint x="290" y="265" as="sourcePoint" />
            <mxPoint x="210" y="180" as="targetPoint" />
            <Array as="points" />
          </mxGeometry>
        </mxCell>
        <mxCell id="951kdNYIY-3Ci5IxXGCE-2" style="rounded=0;orthogonalLoop=1;jettySize=auto;html=1;entryX=1;entryY=0.5;entryDx=0;entryDy=0;exitX=0;exitY=0.5;exitDx=0;exitDy=0;endArrow=none;endFill=0;" edge="1" parent="UY9DITYKQAompn-UwXVe-38" source="a-UGdXaP6SHZQmlNzmEN-1" target="j46p12jNmcbfrppGY4FV-4">
          <mxGeometry relative="1" as="geometry">
            <mxPoint x="501.5" y="20" as="sourcePoint" />
            <mxPoint x="418.5" y="90" as="targetPoint" />
            <Array as="points" />
          </mxGeometry>
        </mxCell>
        <mxCell id="951kdNYIY-3Ci5IxXGCE-3" style="rounded=0;orthogonalLoop=1;jettySize=auto;html=1;entryX=1;entryY=0.5;entryDx=0;entryDy=0;exitX=0;exitY=0.5;exitDx=0;exitDy=0;endArrow=none;endFill=0;" edge="1" parent="UY9DITYKQAompn-UwXVe-38" source="UY9DITYKQAompn-UwXVe-8" target="j46p12jNmcbfrppGY4FV-9">
          <mxGeometry relative="1" as="geometry">
            <mxPoint x="531.5" y="180" as="sourcePoint" />
            <mxPoint x="410" y="215" as="targetPoint" />
            <Array as="points" />
          </mxGeometry>
        </mxCell>
        <mxCell id="951kdNYIY-3Ci5IxXGCE-4" style="rounded=0;orthogonalLoop=1;jettySize=auto;html=1;exitX=0;exitY=0.5;exitDx=0;exitDy=0;endArrow=none;endFill=0;" edge="1" parent="UY9DITYKQAompn-UwXVe-38" source="j46p12jNmcbfrppGY4FV-1">
          <mxGeometry relative="1" as="geometry">
            <mxPoint x="320" y="305" as="sourcePoint" />
            <mxPoint x="200" y="450" as="targetPoint" />
            <Array as="points" />
          </mxGeometry>
        </mxCell>
        <mxCell id="951kdNYIY-3Ci5IxXGCE-5" value="Cancelar cita" style="ellipse;whiteSpace=wrap;html=1;" vertex="1" parent="UY9DITYKQAompn-UwXVe-38">
          <mxGeometry x="520" y="540" width="140" height="70" as="geometry" />
        </mxCell>
        <mxCell id="951kdNYIY-3Ci5IxXGCE-6" value="&amp;lt;&amp;lt;include&amp;gt;&amp;gt;" style="html=1;verticalAlign=bottom;labelBackgroundColor=none;endArrow=open;endFill=0;dashed=1;rounded=0;exitX=0;exitY=0.5;exitDx=0;exitDy=0;entryX=1;entryY=0.5;entryDx=0;entryDy=0;" edge="1" parent="UY9DITYKQAompn-UwXVe-38" source="I5_FkPABJrjS-Rx3a09a-7" target="UY9DITYKQAompn-UwXVe-9">
          <mxGeometry width="160" relative="1" as="geometry">
            <mxPoint x="360" y="530" as="sourcePoint" />
            <mxPoint x="520" y="530" as="targetPoint" />
          </mxGeometry>
        </mxCell>
        <mxCell id="951kdNYIY-3Ci5IxXGCE-7" value="&amp;lt;&amp;lt;include&amp;gt;&amp;gt;" style="html=1;verticalAlign=bottom;labelBackgroundColor=none;endArrow=open;endFill=0;dashed=1;rounded=0;exitX=0;exitY=0.5;exitDx=0;exitDy=0;entryX=1;entryY=0.5;entryDx=0;entryDy=0;" edge="1" parent="UY9DITYKQAompn-UwXVe-38" source="951kdNYIY-3Ci5IxXGCE-5" target="UY9DITYKQAompn-UwXVe-9">
          <mxGeometry width="160" relative="1" as="geometry">
            <mxPoint x="480" y="490" as="sourcePoint" />
            <mxPoint x="400" y="390" as="targetPoint" />
          </mxGeometry>
        </mxCell>
        <mxCell id="951kdNYIY-3Ci5IxXGCE-9" style="rounded=0;orthogonalLoop=1;jettySize=auto;html=1;entryX=1;entryY=0.5;entryDx=0;entryDy=0;exitX=0;exitY=0.5;exitDx=0;exitDy=0;endArrow=none;endFill=0;" edge="1" parent="UY9DITYKQAompn-UwXVe-38" source="j46p12jNmcbfrppGY4FV-160" target="UY9DITYKQAompn-UwXVe-8">
          <mxGeometry relative="1" as="geometry">
            <mxPoint x="730" y="224.51999999999998" as="sourcePoint" />
            <mxPoint x="640" y="224.51999999999998" as="targetPoint" />
            <Array as="points" />
          </mxGeometry>
        </mxCell>
        <mxCell id="951kdNYIY-3Ci5IxXGCE-13" value="Registrase" style="ellipse;whiteSpace=wrap;html=1;" vertex="1" parent="UY9DITYKQAompn-UwXVe-38">
          <mxGeometry x="90" y="1250" width="140" height="70" as="geometry" />
        </mxCell>
        <mxCell id="951kdNYIY-3Ci5IxXGCE-14" value="Recuperar&amp;nbsp;&lt;div&gt;contraseña&lt;/div&gt;" style="ellipse;whiteSpace=wrap;html=1;" vertex="1" parent="UY9DITYKQAompn-UwXVe-38">
          <mxGeometry x="100" y="920" width="140" height="70" as="geometry" />
        </mxCell>
        <mxCell id="j46p12jNmcbfrppGY4FV-134" value="Iniciar sesión&lt;div&gt;(Autenticarse)&lt;/div&gt;" style="ellipse;whiteSpace=wrap;html=1;" parent="UY9DITYKQAompn-UwXVe-38" vertex="1">
          <mxGeometry x="90" y="1085" width="140" height="70" as="geometry" />
        </mxCell>
        <mxCell id="j46p12jNmcbfrppGY4FV-151" value="Mi agenda" style="ellipse;whiteSpace=wrap;html=1;" parent="UY9DITYKQAompn-UwXVe-38" vertex="1">
          <mxGeometry x="300" y="1250" width="140" height="70" as="geometry" />
        </mxCell>
        <mxCell id="j46p12jNmcbfrppGY4FV-153" value="Cancelar&lt;div&gt;cita&lt;/div&gt;" style="ellipse;whiteSpace=wrap;html=1;" parent="UY9DITYKQAompn-UwXVe-38" vertex="1">
          <mxGeometry x="540" y="1250" width="140" height="70" as="geometry" />
        </mxCell>
        <mxCell id="j46p12jNmcbfrppGY4FV-157" style="rounded=0;orthogonalLoop=1;jettySize=auto;html=1;entryX=0;entryY=0.5;entryDx=0;entryDy=0;dashed=1;startArrow=classic;startFill=1;endArrow=none;endFill=0;" parent="UY9DITYKQAompn-UwXVe-38" source="j46p12jNmcbfrppGY4FV-151" target="j46p12jNmcbfrppGY4FV-153" edge="1">
          <mxGeometry relative="1" as="geometry">
            <mxPoint x="440" y="1215" as="sourcePoint" />
            <mxPoint x="570" y="1235" as="targetPoint" />
          </mxGeometry>
        </mxCell>
        <mxCell id="j46p12jNmcbfrppGY4FV-158" value="&amp;lt;&amp;lt;include&amp;gt;&amp;gt;" style="edgeLabel;html=1;align=center;verticalAlign=middle;resizable=0;points=[];" parent="j46p12jNmcbfrppGY4FV-157" connectable="0" vertex="1">
          <mxGeometry x="0.0533" y="2" relative="1" as="geometry">
            <mxPoint as="offset" />
          </mxGeometry>
        </mxCell>
        <mxCell id="951kdNYIY-3Ci5IxXGCE-16" value="Visualizar inicio" style="ellipse;whiteSpace=wrap;html=1;" vertex="1" parent="UY9DITYKQAompn-UwXVe-38">
          <mxGeometry x="320" y="1085" width="140" height="70" as="geometry" />
        </mxCell>
        <mxCell id="951kdNYIY-3Ci5IxXGCE-20" style="rounded=0;orthogonalLoop=1;jettySize=auto;html=1;entryX=0;entryY=0.5;entryDx=0;entryDy=0;endArrow=none;endFill=0;exitX=1;exitY=0.5;exitDx=0;exitDy=0;" edge="1" parent="UY9DITYKQAompn-UwXVe-38" source="j46p12jNmcbfrppGY4FV-134" target="951kdNYIY-3Ci5IxXGCE-16">
          <mxGeometry relative="1" as="geometry">
            <mxPoint x="240" y="1140" as="sourcePoint" />
            <mxPoint x="370" y="1139" as="targetPoint" />
          </mxGeometry>
        </mxCell>
        <mxCell id="951kdNYIY-3Ci5IxXGCE-53" style="rounded=0;orthogonalLoop=1;jettySize=auto;html=1;entryX=0;entryY=0.5;entryDx=0;entryDy=0;endArrow=none;endFill=0;exitX=0.995;exitY=0.64;exitDx=0;exitDy=0;exitPerimeter=0;" edge="1" parent="UY9DITYKQAompn-UwXVe-38" source="j46p12jNmcbfrppGY4FV-134" target="j46p12jNmcbfrppGY4FV-151">
          <mxGeometry relative="1" as="geometry">
            <mxPoint x="240" y="1150" as="sourcePoint" />
            <mxPoint x="330" y="1150" as="targetPoint" />
          </mxGeometry>
        </mxCell>
        <mxCell id="951kdNYIY-3Ci5IxXGCE-54" value="Recibir&lt;div&gt;correo&lt;/div&gt;" style="ellipse;whiteSpace=wrap;html=1;" vertex="1" parent="UY9DITYKQAompn-UwXVe-38">
          <mxGeometry x="310" y="860" width="140" height="70" as="geometry" />
        </mxCell>
        <mxCell id="951kdNYIY-3Ci5IxXGCE-55" value="Crear nueva&amp;nbsp;&lt;div&gt;contraseña&lt;/div&gt;" style="ellipse;whiteSpace=wrap;html=1;" vertex="1" parent="UY9DITYKQAompn-UwXVe-38">
          <mxGeometry x="520" y="860" width="140" height="70" as="geometry" />
        </mxCell>
        <mxCell id="951kdNYIY-3Ci5IxXGCE-56" style="rounded=0;orthogonalLoop=1;jettySize=auto;html=1;entryX=0;entryY=0.5;entryDx=0;entryDy=0;endArrow=none;endFill=0;exitX=1;exitY=0.5;exitDx=0;exitDy=0;" edge="1" parent="UY9DITYKQAompn-UwXVe-38" source="951kdNYIY-3Ci5IxXGCE-54" target="951kdNYIY-3Ci5IxXGCE-55">
          <mxGeometry relative="1" as="geometry">
            <mxPoint x="470" y="895" as="sourcePoint" />
            <mxPoint x="540" y="894.17" as="targetPoint" />
          </mxGeometry>
        </mxCell>
        <mxCell id="951kdNYIY-3Ci5IxXGCE-57" style="rounded=0;orthogonalLoop=1;jettySize=auto;html=1;entryX=-0.008;entryY=0.599;entryDx=0;entryDy=0;endArrow=none;endFill=0;exitX=1;exitY=0.5;exitDx=0;exitDy=0;entryPerimeter=0;" edge="1" parent="UY9DITYKQAompn-UwXVe-38" source="951kdNYIY-3Ci5IxXGCE-14" target="951kdNYIY-3Ci5IxXGCE-54">
          <mxGeometry relative="1" as="geometry">
            <mxPoint x="240" y="954.52" as="sourcePoint" />
            <mxPoint x="310" y="954.52" as="targetPoint" />
          </mxGeometry>
        </mxCell>
        <mxCell id="951kdNYIY-3Ci5IxXGCE-58" value="Mis propuestas" style="ellipse;whiteSpace=wrap;html=1;" vertex="1" parent="UY9DITYKQAompn-UwXVe-38">
          <mxGeometry x="320" y="990" width="140" height="70" as="geometry" />
        </mxCell>
        <mxCell id="951kdNYIY-3Ci5IxXGCE-97" value="Aceptar cita" style="ellipse;whiteSpace=wrap;html=1;" vertex="1" parent="UY9DITYKQAompn-UwXVe-38">
          <mxGeometry x="550" y="990" width="140" height="70" as="geometry" />
        </mxCell>
        <mxCell id="951kdNYIY-3Ci5IxXGCE-98" style="rounded=0;orthogonalLoop=1;jettySize=auto;html=1;endArrow=none;endFill=0;exitX=1;exitY=0.5;exitDx=0;exitDy=0;entryX=0;entryY=0.5;entryDx=0;entryDy=0;" edge="1" parent="UY9DITYKQAompn-UwXVe-38" source="j46p12jNmcbfrppGY4FV-134" target="951kdNYIY-3Ci5IxXGCE-58">
          <mxGeometry relative="1" as="geometry">
            <mxPoint x="230" y="1030" as="sourcePoint" />
            <mxPoint x="310" y="1030" as="targetPoint" />
          </mxGeometry>
        </mxCell>
        <mxCell id="951kdNYIY-3Ci5IxXGCE-99" style="rounded=0;orthogonalLoop=1;jettySize=auto;html=1;entryX=0;entryY=0.5;entryDx=0;entryDy=0;endArrow=none;endFill=0;exitX=1;exitY=0.5;exitDx=0;exitDy=0;" edge="1" parent="UY9DITYKQAompn-UwXVe-38" target="951kdNYIY-3Ci5IxXGCE-97">
          <mxGeometry relative="1" as="geometry">
            <mxPoint x="460" y="1024.41" as="sourcePoint" />
            <mxPoint x="550" y="1024.41" as="targetPoint" />
          </mxGeometry>
        </mxCell>
        <mxCell id="j46p12jNmcbfrppGY4FV-129" style="rounded=0;orthogonalLoop=1;jettySize=auto;html=1;entryX=0;entryY=0.5;entryDx=0;entryDy=0;endArrow=none;endFill=0;" parent="1" source="j46p12jNmcbfrppGY4FV-131" target="j46p12jNmcbfrppGY4FV-134" edge="1">
          <mxGeometry relative="1" as="geometry" />
        </mxCell>
        <mxCell id="j46p12jNmcbfrppGY4FV-131" value="Técnico" style="shape=umlActor;verticalLabelPosition=bottom;verticalAlign=top;html=1;" parent="1" vertex="1">
          <mxGeometry x="-160" y="320" width="30" height="60" as="geometry" />
        </mxCell>
        <mxCell id="I5_FkPABJrjS-Rx3a09a-1" style="rounded=0;orthogonalLoop=1;jettySize=auto;html=1;entryX=0;entryY=0.5;entryDx=0;entryDy=0;endArrow=none;endFill=0;" parent="1" source="UY9DITYKQAompn-UwXVe-1" edge="1" target="I5_FkPABJrjS-Rx3a09a-2">
          <mxGeometry relative="1" as="geometry">
            <mxPoint x="-140" y="-558.5" as="sourcePoint" />
            <mxPoint x="-19.999999999996817" y="-561.5" as="targetPoint" />
          </mxGeometry>
        </mxCell>
        <mxCell id="951kdNYIY-3Ci5IxXGCE-17" style="rounded=0;orthogonalLoop=1;jettySize=auto;html=1;flowAnimation=0;shadow=0;jumpStyle=none;exitX=0;exitY=0.5;exitDx=0;exitDy=0;elbow=vertical;endArrow=none;endFill=0;" edge="1" parent="1" source="951kdNYIY-3Ci5IxXGCE-14">
          <mxGeometry relative="1" as="geometry">
            <mxPoint x="310" y="205" as="sourcePoint" />
            <mxPoint x="-130" y="330" as="targetPoint" />
          </mxGeometry>
        </mxCell>
        <mxCell id="951kdNYIY-3Ci5IxXGCE-19" style="rounded=0;orthogonalLoop=1;jettySize=auto;html=1;entryX=0;entryY=0.5;entryDx=0;entryDy=0;endArrow=none;endFill=0;exitX=1;exitY=1;exitDx=0;exitDy=0;exitPerimeter=0;" edge="1" parent="1" source="j46p12jNmcbfrppGY4FV-131" target="951kdNYIY-3Ci5IxXGCE-13">
          <mxGeometry relative="1" as="geometry">
            <mxPoint x="-120" y="360" as="sourcePoint" />
            <mxPoint x="20" y="360" as="targetPoint" />
          </mxGeometry>
        </mxCell>
      </root>
    </mxGraphModel>
  </diagram>
</mxfile>
